<?xml version="1.0" encoding="UTF-8" standalone="no" ?>
<!DOCTYPE svg PUBLIC "-//W3C//DTD SVG 1.1//EN" "http://www.w3.org/Graphics/SVG/1.1/DTD/svg11.dtd">
<svg xmlns="http://www.w3.org/2000/svg" xmlns:xlink="http://www.w3.org/1999/xlink" version="1.1" width="1080" height="1080" viewBox="0 0 1080 1080" xml:space="preserve">
<desc>Created with Fabric.js 5.2.4</desc>
<defs>
</defs>
<g transform="matrix(1 0 0 1 540 540)" id="12c3dadf-7e5e-46e5-a0a9-513636a178d8"  >
<rect style="stroke: none; stroke-width: 1; stroke-dasharray: none; stroke-linecap: butt; stroke-dashoffset: 0; stroke-linejoin: miter; stroke-miterlimit: 4; fill: rgb(255,255,255); fill-rule: nonzero; opacity: 1; visibility: hidden;" vector-effect="non-scaling-stroke"  x="-540" y="-540" rx="0" ry="0" width="1080" height="1080" />
</g>
<g transform="matrix(1 0 0 1 540 540)" id="db20c8f7-e1b4-4556-abeb-b4e6aaef1ff6"  >
</g>
<g transform="matrix(1 0 0 1 474.38 547.08)"  >
<path style="stroke: none; stroke-width: 1; stroke-dasharray: none; stroke-linecap: butt; stroke-dashoffset: 0; stroke-linejoin: miter; stroke-miterlimit: 4; fill: rgb(57,65,73); fill-rule: nonzero; opacity: 1;" vector-effect="non-scaling-stroke"  transform=" translate(-27.9, -27.08)" d="M 30.2254 17.828 C 29.72 18.3364 29.3331 18.95 29.092 19.6249 C 28.851 20.3 28.7618 21.0199 28.8307 21.7333 L 28.8067 21.7093 C 28.8776 22.5492 28.7643 23.3943 28.4748 24.1859 C 28.1854 24.9773 27.7267 25.6961 27.1308 26.2921 C 26.5348 26.888 25.816 27.3468 25.0244 27.6361 C 24.233 27.9256 23.3878 28.0389 22.548 27.968 L 22.572 27.992 C 21.5675 27.8985 20.5586 28.1171 19.6827 28.618 C 18.807 29.1189 18.107 29.8777 17.6783 30.7911 C 17.2496 31.7044 17.113 32.7276 17.2871 33.7215 C 17.4614 34.7152 17.9378 35.6311 18.6515 36.3441 C 19.3652 37.0572 20.2815 37.5328 21.2754 37.706 C 22.2694 37.8793 23.2924 37.7417 24.2054 37.3123 C 25.1183 36.8827 25.8764 36.1821 26.3766 35.3059 C 26.8767 34.4296 27.0944 33.4205 27 32.416 L 27.0254 32.44 C 26.9544 31.6003 27.0676 30.7551 27.3571 29.9635 C 27.6466 29.172 28.1054 28.4532 28.7012 27.8572 C 29.2972 27.2613 30.016 26.8025 30.8075 26.5132 C 31.5991 26.2237 32.4442 26.1104 33.284 26.1813 L 33.2587 26.1573 C 34.0792 26.2311 34.9052 26.0965 35.66 25.7661 C 36.4147 25.4357 37.0739 24.9201 37.5763 24.2672 C 38.0787 23.6143 38.4083 22.8449 38.5342 22.0308 C 38.6602 21.2165 38.5786 20.3837 38.297 19.6093 C 38.0154 18.8351 37.5428 18.1444 36.9232 17.6013 C 36.3036 17.0583 35.557 16.6804 34.7524 16.5028 C 33.9479 16.3252 33.1115 16.3535 32.3208 16.5851 C 31.5302 16.8168 30.8108 17.2443 30.2294 17.828 L 30.2254 17.828 Z" stroke-linecap="round" />
</g>
<g transform="matrix(1 0 0 1 467.27 539.96)"  >
<path style="stroke: none; stroke-width: 1; stroke-dasharray: none; stroke-linecap: butt; stroke-dashoffset: 0; stroke-linejoin: miter; stroke-miterlimit: 4; fill: rgb(0,107,106); fill-rule: nonzero; opacity: 1;" vector-effect="non-scaling-stroke"  transform=" translate(-20.8, -19.96)" d="M 20.3894 24.848 L 20.364 24.824 C 21.0778 24.8959 21.7986 24.8083 22.4744 24.5675 C 23.1502 24.3267 23.764 23.9388 24.2715 23.4317 C 24.7788 22.9247 25.1674 22.3111 25.4086 21.6355 C 25.6499 20.9599 25.738 20.2392 25.6667 19.5253 L 25.692 19.5493 C 25.6211 18.7095 25.7344 17.8644 26.0238 17.0728 C 26.3132 16.2813 26.772 15.5625 27.3679 14.9665 C 27.9639 14.3707 28.6827 13.9119 29.4742 13.6225 C 30.2658 13.333 31.1108 13.2198 31.9507 13.2907 L 31.9254 13.2667 C 32.93 13.3611 33.9392 13.1431 34.8155 12.6428 C 35.6919 12.1425 36.3924 11.384 36.8218 10.4708 C 37.2511 9.55765 37.3883 8.53428 37.2147 7.54027 C 37.0411 6.54625 36.5651 5.63001 35.8515 4.91649 C 35.138 4.20299 34.2218 3.72693 33.2278 3.55331 C 32.2338 3.37967 31.2104 3.51688 30.2972 3.94624 C 29.384 4.37559 28.6256 5.07619 28.1252 5.95247 C 27.6248 6.82873 27.407 7.83803 27.5014 8.84267 L 27.4774 8.81733 C 27.5484 9.65719 27.4354 10.5024 27.146 11.2941 C 26.8567 12.0857 26.3979 12.8046 25.802 13.4007 C 25.206 13.9965 24.4871 14.4553 23.6955 14.7447 C 22.9038 15.034 22.0586 15.1471 21.2187 15.076 L 21.2427 15.1013 C 20.529 15.0295 19.808 15.1171 19.1323 15.3579 C 18.4566 15.5985 17.8427 15.9865 17.3352 16.4936 C 16.8278 17.0007 16.4394 17.6143 16.198 18.2899 C 15.9568 18.9655 15.8687 19.6861 15.94 20.4 L 15.916 20.376 C 15.9867 21.2157 15.8732 22.0608 15.5838 22.8523 C 15.2942 23.6436 14.8355 24.3624 14.2396 24.9583 C 13.6437 25.5541 12.925 26.0128 12.1336 26.3024 C 11.3422 26.5919 10.4971 26.7053 9.65738 26.6347 L 9.68138 26.6587 C 8.67674 26.5643 7.66744 26.7821 6.79116 27.2825 C 5.9149 27.7829 5.2143 28.5413 4.78495 29.4545 C 4.35559 30.3677 4.21836 31.3911 4.392 32.3851 C 4.56564 33.3791 5.0417 34.2953 5.7552 35.0088 C 6.46872 35.7224 7.38496 36.1984 8.37898 36.372 C 9.37299 36.5456 10.3964 36.4084 11.3095 35.9791 C 12.2227 35.5497 12.9812 34.8492 13.4815 33.9729 C 13.9819 33.0965 14.1998 32.0873 14.1054 31.0827 L 14.1307 31.1067 C 14.0598 30.2668 14.1731 29.4217 14.4626 28.6301 C 14.7519 27.8387 15.2107 27.1199 15.8066 26.5239 C 16.4026 25.928 17.1214 25.4692 17.9128 25.1799 C 18.7044 24.8904 19.5495 24.7771 20.3894 24.848 Z" stroke-linecap="round" />
</g>
<g transform="matrix(1 0 0 1 460.26 532.91)"  >
<path style="stroke: none; stroke-width: 1; stroke-dasharray: none; stroke-linecap: butt; stroke-dashoffset: 0; stroke-linejoin: miter; stroke-miterlimit: 4; fill: rgb(57,65,73); fill-rule: nonzero; opacity: 1;" vector-effect="non-scaling-stroke"  transform=" translate(-13.78, -12.92)" d="M 11.4532 22.172 C 11.9586 21.6637 12.3455 21.0501 12.5864 20.3751 C 12.8272 19.7 12.9161 18.98 12.8466 18.2667 L 12.8719 18.2907 C 12.801 17.4507 12.9142 16.6052 13.2039 15.8135 C 13.4935 15.0217 13.9524 14.3028 14.5487 13.7068 C 15.145 13.1108 15.864 12.6522 16.6559 12.3629 C 17.4478 12.0736 18.2933 11.9607 19.1333 12.032 L 19.1079 12.008 C 20.1122 12.1021 21.1211 11.8841 21.997 11.3838 C 22.8729 10.8835 23.573 10.1252 24.0022 9.21231 C 24.4312 8.29943 24.5683 7.27643 24.3947 6.28279 C 24.2211 5.28915 23.7451 4.37326 23.0319 3.66001 C 22.3187 2.94675 21.4027 2.47086 20.4091 2.29723 C 19.4155 2.12359 18.3925 2.26069 17.4797 2.68978 C 16.5667 3.11887 15.8084 3.8191 15.3082 4.69497 C 14.8078 5.57083 14.5898 6.57971 14.6839 7.58401 L 14.6599 7.56001 C 14.7308 8.39981 14.6175 9.24497 14.3281 10.0365 C 14.0386 10.828 13.5799 11.5468 12.984 12.1428 C 12.3881 12.7387 11.6692 13.1974 10.8777 13.4868 C 10.0862 13.7763 9.24105 13.8896 8.40125 13.8187 L 8.42525 13.8427 C 7.60468 13.7691 6.7788 13.9039 6.02416 14.2344 C 5.26952 14.5649 4.61052 15.0807 4.10824 15.7337 C 3.60596 16.3867 3.27665 17.156 3.15081 17.9701 C 3.02498 18.7844 3.1067 19.6172 3.3884 20.3913 C 3.67009 21.1656 4.14266 21.8561 4.7623 22.3991 C 5.38194 22.9421 6.12861 23.3199 6.93312 23.4975 C 7.73761 23.6749 8.57392 23.6465 9.36454 23.4149 C 10.1552 23.1832 10.8745 22.7557 11.4559 22.172 L 11.4532 22.172 Z" stroke-linecap="round" />
</g>
<g transform="matrix(1 0 0 0.79 540 539.11)" style="" id="56af6795-905a-49f6-81ea-6a6eb2ae9f1b"  >
		<text xml:space="preserve" font-family="Lato" font-size="38" font-style="normal" font-weight="400" style="stroke: none; stroke-width: 1; stroke-dasharray: none; stroke-linecap: butt; stroke-dashoffset: 0; stroke-linejoin: miter; stroke-miterlimit: 4; fill: rgb(0,0,0); fill-rule: nonzero; opacity: 1; white-space: pre;" ><tspan x="-45.41" y="11.94" >M</tspan><tspan x="-8.74" y="11.94" >Z</tspan><tspan x="16.68" y="11.94" >H</tspan></text>
</g>
</svg>